<svg width="16" height="12" viewBox="0 0 16 12" fill="none" xmlns="http://www.w3.org/2000/svg">
<path d="M14.5 -1.14441e-05H1.50001C0.672854 -1.14441e-05 0 0.628096 0 1.40024V9.80171C0 10.5739 0.672854 11.202 1.50001 11.202H14.5C15.3271 11.202 16 10.5739 16 9.80171V1.40024C16 0.628096 15.3271 -1.14441e-05 14.5 -1.14441e-05V-1.14441e-05ZM14.5 0.933482C14.5679 0.933482 14.6325 0.946639 14.6916 0.969617L8 6.3836L1.30833 0.969617C1.36742 0.94667 1.43204 0.933482 1.49998 0.933482H14.5ZM14.5 10.2684H1.50001C1.22414 10.2684 0.999996 10.0592 0.999996 9.80168V1.95586L7.67236 7.35401C7.76661 7.43012 7.8833 7.46797 8 7.46797C8.1167 7.46797 8.23339 7.43015 8.32764 7.35401L15 1.95586V9.80171C15 10.0592 14.7759 10.2684 14.5 10.2684V10.2684Z" fill="#2196F3"/>
</svg>
