<svg width="10" height="15" viewBox="0 0 10 15" fill="none" xmlns="http://www.w3.org/2000/svg">
<path d="M8.5 2.28882e-05H1.5C0.672848 2.28882e-05 0 0.628126 0 1.40027V13.5357C0 14.3079 0.672848 14.936 1.5 14.936H8.5C9.32715 14.936 10 14.3079 10 13.5357V1.40027C10 0.628126 9.32715 2.28882e-05 8.5 2.28882e-05ZM1.5 0.933521H8.5C8.77588 0.933521 9 1.14274 9 1.40027V11.202H1V1.40027C1 1.14274 1.22412 0.933521 1.5 0.933521ZM8.5 14.0025H1.5C1.22412 14.0025 1 13.7933 1 13.5357V12.1355H9V13.5357C9 13.7933 8.77588 14.0025 8.5 14.0025Z" fill="#2196F3"/>
</svg>
